Love for All and Sharing is the first step to solving all the problems of humanity.

Website I want to share. 
               
   http://www.scenetime.com
 
 
  Credit to EVERYONE for sharing and seeding back
 especially to SCENETIME.COM where i get all my 
 downloads.


 support www.scenetime.com to grow faster.

                             
                                                            
                                                   

.                 ..................................NFO:....................................

[img]http://www.leetleech.org/images/14354441291216865318.png[/img]

[title]No Country For Old Men 2007 DVDRip XviD AC3-LEGi0N[/title][/center]

[info][b]
[color=red]General[/color]
Format: AVI
File size: 1.66 GiB
Duration: 1h 57mn
Overall bit rate: 2 022 Kbps
IMDb Rating: 8.3/10   191,602 votes 
Genre: Crime | Drama | Thriller | Western
Release Date: Retail
Source: Retail  

[color=red]Video[/color]
ID                               : 0
Format                           : MPEG-4 Visual
Format profile                   : Unrestricted
Format settings, BVOP            : Yes
Format settings, QPel            : No
Format settings, GMC             : No warppoints
Format settings, Matrix          : Default (H.263)
Muxing mode                      : Packed bitstream
Codec ID                         : XVID
Codec ID/Hint                    : XviD
Duration                         : 1h 57mn
Bit rate                         : 1 569 Kbps
Width                            : 720 pixels
Height                           : 304 pixels
Display aspect ratio             : 2.35:1
Frame rate                       : 25.000 fps
Color space                      : YUV
Chroma subsampling               : 4:2:0
Bit depth                        : 8 bits
Scan type                        : Progressive
Bits/(Pixel*Frame)               : 0.287
Stream size                      : 1.28 GiB (78%)
Writing library                  : XviD 1.2.1 (UTC 2008-12-04)

[color=red]Audio[/color]
ID                               : 1
Format                           : AC-3
Format/Info                      : Audio Coding 3
Mode extension                   : CM (complete main)
Codec ID                         : 2000
Duration                         : 1h 57mn
Bit rate mode                    : Constant
Bit rate                         : 448 Kbps
Channel(s)                       : 6 channels
Channel positions                : Front: L C R, Side: L R, LFE
Sampling rate                    : 48.0 KHz
Stream size                      : 376 MiB (22%)
Alignment                        : Aligned on interleaves
Interleave, duration             : 64 ms (1.60 video frames)
Interleave, preload duration     : 192 ms
Title                            : VTS_04_1 T80 3_2ch 448Kbps DELAY 0ms


[url=http://www.imdb.com/title/tt0477348/][img]http://leetleech.org/images/47664146148439246089.png[/img][/url]

[plot]
Violence and mayhem ensue after a hunter stumbles upon some dead bodies, 
a stash of heroin and more than $2 million in cash near the Rio Grande.

[cast]

Tommy Lee Jones	... 	Ed Tom Bell
Javier Bardem	... 	Anton Chigurh
Josh Brolin	... 	Llewelyn Moss
Woody Harrelson	... 	Carson Wells
Kelly Macdonald	... 	Carla Jean Moss
Garret Dillahunt	... 	Wendell
Tess Harper	... 	Loretta Bell
Barry Corbin	... 	Ellis
Stephen Root	... 	Man who hires Wells
Rodger Boyce	... 	El Paso Sheriff
Beth Grant	... 	Carla Jean's Mother
Ana Reeder	... 	Poolside Woman
Kit Gwin	... 	Sheriff Bell's Secretary
Zach Hopkins	... 	Strangled Deputy
Chip Love	... 	Man in Ford[/b]

[screens]
[center][img]http://leetleech.org/images/78919867554783973047.jpg[/img]
[img]http://www.leetleech.org/images/55772691584506514432.png[/img]
[img]http://www.leetleech.org/images/25504013466805885776.png[/img]
[img]http://www.leetleech.org/images/67038758208399642661.png[/img]
[img]http://www.leetleech.org/images/78672733810805571561.png[/img][color=red]GREETZ[/color]

Noir | bigimac | LUSi



kempas | KaN1vE | mike160 | skillz



FLAWL3SS | AND ALL P2P [/center]